<svg width="498" height="115" viewBox="0 0 498 115" fill="none" xmlns="http://www.w3.org/2000/svg">
<path fill-rule="evenodd" clip-rule="evenodd" d="M405 35C405 34.0715 405 33.6073 404.991 33.2147C404.571 15.0524 389.948 0.428694 371.785 0.00907094C371.393 0 370.928 0 370 0H128C127.072 0 126.607 0 126.215 0.00907094C108.052 0.428694 93.4287 15.0524 93.0091 33.2147C93 33.6073 93 34.0715 93 35C93 35.9285 93 36.3927 92.9909 36.7853C92.5713 54.9476 77.9476 69.5713 59.7853 69.9909C59.3927 70 58.9285 70 58 70H22.5C10.0736 70 0 80.0736 0 92.5C0 104.926 10.0736 115 22.5 115H475.5C487.926 115 498 104.926 498 92.5C498 80.0736 487.926 70 475.5 70H440C439.072 70 438.607 70 438.215 69.9909C420.052 69.5713 405.429 54.9476 405.009 36.7853C405 36.3927 405 35.9285 405 35Z" fill="white"/>
<rect x="107" y="13" width="285" height="70" rx="22" fill="#E2FF65"/>
<path d="M166.398 46.326H164.007C163.939 45.9339 163.813 45.5866 163.63 45.2841C163.447 44.9773 163.219 44.7173 162.946 44.5043C162.673 44.2912 162.362 44.1314 162.013 44.0249C161.668 43.9141 161.295 43.8587 160.894 43.8587C160.183 43.8587 159.552 44.0376 159.002 44.3956C158.453 44.7493 158.022 45.2692 157.711 45.9553C157.4 46.6371 157.244 47.4702 157.244 48.4545C157.244 49.456 157.4 50.2997 157.711 50.9858C158.026 51.6676 158.457 52.1832 159.002 52.5327C159.552 52.8778 160.18 53.0504 160.888 53.0504C161.28 53.0504 161.646 52.9993 161.987 52.897C162.332 52.7905 162.641 52.6349 162.914 52.4304C163.191 52.2259 163.423 51.9744 163.611 51.6761C163.803 51.3778 163.935 51.0369 164.007 50.6534L166.398 50.6662C166.308 51.2884 166.114 51.8722 165.816 52.4176C165.522 52.9631 165.136 53.4446 164.659 53.8622C164.182 54.2756 163.624 54.5994 162.984 54.8338C162.345 55.0639 161.636 55.179 160.856 55.179C159.705 55.179 158.678 54.9126 157.775 54.38C156.872 53.8473 156.16 53.0781 155.64 52.0724C155.12 51.0668 154.86 49.8608 154.86 48.4545C154.86 47.044 155.122 45.8381 155.646 44.8366C156.171 43.831 156.884 43.0618 157.788 42.5291C158.691 41.9964 159.714 41.7301 160.856 41.7301C161.585 41.7301 162.262 41.8324 162.889 42.0369C163.515 42.2415 164.073 42.5419 164.563 42.9382C165.053 43.3303 165.456 43.8118 165.771 44.3828C166.091 44.9496 166.3 45.5973 166.398 46.326ZM168.467 55V45.1818H170.781V49.1449H171.625L174.578 45.1818H177.365L173.728 50.0014L177.403 55H174.604L171.913 51.299H170.781V55H168.467ZM181.541 55.1982C180.918 55.1982 180.358 55.0874 179.859 54.8658C179.365 54.6399 178.973 54.3075 178.683 53.8686C178.398 53.4297 178.255 52.8885 178.255 52.245C178.255 51.6911 178.357 51.233 178.562 50.8707C178.766 50.5085 179.046 50.2188 179.399 50.0014C179.753 49.7841 180.151 49.62 180.595 49.5092C181.042 49.3942 181.504 49.3111 181.982 49.2599C182.557 49.2003 183.024 49.147 183.381 49.1001C183.739 49.049 183.999 48.9723 184.161 48.87C184.328 48.7635 184.411 48.5994 184.411 48.3778V48.3395C184.411 47.858 184.268 47.4851 183.982 47.2209C183.697 46.9567 183.286 46.8246 182.749 46.8246C182.182 46.8246 181.732 46.9482 181.4 47.1953C181.072 47.4425 180.85 47.7344 180.735 48.071L178.575 47.7642C178.745 47.1676 179.026 46.669 179.418 46.2685C179.81 45.8636 180.29 45.5611 180.857 45.3608C181.423 45.1562 182.05 45.054 182.736 45.054C183.209 45.054 183.68 45.1094 184.149 45.2202C184.617 45.331 185.046 45.5142 185.433 45.7699C185.821 46.0213 186.132 46.3643 186.367 46.799C186.605 47.2337 186.725 47.777 186.725 48.429V55H184.5V53.6513H184.423C184.283 53.924 184.085 54.1797 183.829 54.4183C183.578 54.6527 183.26 54.8423 182.877 54.9872C182.497 55.1278 182.052 55.1982 181.541 55.1982ZM182.141 53.4979C182.606 53.4979 183.009 53.4062 183.35 53.223C183.69 53.0355 183.953 52.7884 184.136 52.4815C184.323 52.1747 184.417 51.8402 184.417 51.478V50.321C184.345 50.3807 184.221 50.4361 184.046 50.4872C183.876 50.5384 183.684 50.5831 183.471 50.6214C183.258 50.6598 183.047 50.6939 182.838 50.7237C182.629 50.7536 182.448 50.7791 182.295 50.8004C181.95 50.8473 181.641 50.924 181.368 51.0305C181.095 51.1371 180.88 51.2862 180.722 51.478C180.565 51.6655 180.486 51.9084 180.486 52.2067C180.486 52.6328 180.641 52.9545 180.953 53.1719C181.264 53.3892 181.66 53.4979 182.141 53.4979ZM197.252 45.1818V55H195.028V45.1818H197.252ZM196.21 49.6179V51.5099C195.959 51.6207 195.673 51.7209 195.354 51.8104C195.038 51.8956 194.704 51.9638 194.35 52.0149C194.001 52.0661 193.651 52.0916 193.302 52.0916C191.989 52.0916 190.952 51.7976 190.189 51.2095C189.43 50.6172 189.051 49.6946 189.051 48.4418V45.169H191.263V48.4418C191.263 48.8636 191.337 49.2024 191.487 49.4581C191.636 49.7138 191.862 49.9013 192.164 50.0206C192.467 50.1357 192.846 50.1932 193.302 50.1932C193.813 50.1932 194.299 50.142 194.759 50.0398C195.22 49.9375 195.703 49.7969 196.21 49.6179ZM202.406 55.1982C201.784 55.1982 201.223 55.0874 200.725 54.8658C200.23 54.6399 199.838 54.3075 199.549 53.8686C199.263 53.4297 199.12 52.8885 199.12 52.245C199.12 51.6911 199.223 51.233 199.427 50.8707C199.632 50.5085 199.911 50.2188 200.264 50.0014C200.618 49.7841 201.017 49.62 201.46 49.5092C201.907 49.3942 202.37 49.3111 202.847 49.2599C203.422 49.2003 203.889 49.147 204.247 49.1001C204.605 49.049 204.865 48.9723 205.027 48.87C205.193 48.7635 205.276 48.5994 205.276 48.3778V48.3395C205.276 47.858 205.133 47.4851 204.848 47.2209C204.562 46.9567 204.151 46.8246 203.614 46.8246C203.047 46.8246 202.598 46.9482 202.265 47.1953C201.937 47.4425 201.715 47.7344 201.6 48.071L199.44 47.7642C199.61 47.1676 199.892 46.669 200.284 46.2685C200.676 45.8636 201.155 45.5611 201.722 45.3608C202.289 45.1562 202.915 45.054 203.601 45.054C204.074 45.054 204.545 45.1094 205.014 45.2202C205.483 45.331 205.911 45.5142 206.299 45.7699C206.686 46.0213 206.997 46.3643 207.232 46.799C207.47 47.2337 207.59 47.777 207.59 48.429V55H205.365V53.6513H205.289C205.148 53.924 204.95 54.1797 204.694 54.4183C204.443 54.6527 204.125 54.8423 203.742 54.9872C203.362 55.1278 202.917 55.1982 202.406 55.1982ZM203.007 53.4979C203.471 53.4979 203.874 53.4062 204.215 53.223C204.556 53.0355 204.818 52.7884 205.001 52.4815C205.188 52.1747 205.282 51.8402 205.282 51.478V50.321C205.21 50.3807 205.086 50.4361 204.911 50.4872C204.741 50.5384 204.549 50.5831 204.336 50.6214C204.123 50.6598 203.912 50.6939 203.703 50.7237C203.495 50.7536 203.313 50.7791 203.16 50.8004C202.815 50.8473 202.506 50.924 202.233 51.0305C201.96 51.1371 201.745 51.2862 201.588 51.478C201.43 51.6655 201.351 51.9084 201.351 52.2067C201.351 52.6328 201.507 52.9545 201.818 53.1719C202.129 53.3892 202.525 53.4979 203.007 53.4979ZM208.817 47.0803V45.1818H217.408V47.0803H214.231V55H211.994V47.0803H208.817ZM220.816 48.3778H223.712C224.965 48.3778 225.934 48.6825 226.62 49.2919C227.307 49.9013 227.652 50.7003 227.656 51.6889C227.652 52.3324 227.494 52.9034 227.183 53.402C226.876 53.9006 226.429 54.2926 225.841 54.5781C225.257 54.8594 224.547 55 223.712 55H219.25V45.1818H221.481V53.1016H223.712C224.215 53.1016 224.628 52.9737 224.952 52.718C225.276 52.4581 225.438 52.1257 225.438 51.7209C225.438 51.2947 225.276 50.9474 224.952 50.679C224.628 50.4105 224.215 50.2763 223.712 50.2763H220.816V48.3778ZM234.104 55V45.1818H242.394V55H240.164V47.0803H236.316V55H234.104ZM244.774 58.6818V45.1818H247.049V46.8054H247.184C247.303 46.5668 247.471 46.3132 247.689 46.0447C247.906 45.772 248.2 45.5398 248.571 45.348C248.941 45.152 249.415 45.054 249.99 45.054C250.748 45.054 251.432 45.2479 252.042 45.6357C252.655 46.0192 253.141 46.5881 253.499 47.3423C253.861 48.0923 254.042 49.0128 254.042 50.1037C254.042 51.1818 253.866 52.098 253.512 52.8523C253.158 53.6065 252.677 54.1818 252.067 54.5781C251.458 54.9744 250.767 55.1726 249.996 55.1726C249.434 55.1726 248.967 55.0788 248.596 54.8913C248.226 54.7038 247.927 54.478 247.701 54.2138C247.48 53.9453 247.307 53.6918 247.184 53.4531H247.088V58.6818H244.774ZM247.043 50.0909C247.043 50.7259 247.133 51.282 247.312 51.7592C247.495 52.2365 247.757 52.6094 248.098 52.8778C248.443 53.142 248.861 53.2741 249.351 53.2741C249.862 53.2741 250.29 53.1378 250.635 52.8651C250.981 52.5881 251.241 52.2109 251.415 51.7337C251.594 51.2521 251.684 50.7045 251.684 50.0909C251.684 49.4815 251.596 48.9403 251.422 48.4673C251.247 47.9943 250.987 47.6236 250.642 47.3551C250.297 47.0866 249.866 46.9524 249.351 46.9524C248.856 46.9524 248.437 47.0824 248.091 47.3423C247.746 47.6023 247.484 47.9666 247.305 48.4354C247.13 48.9041 247.043 49.456 247.043 50.0909ZM258.255 51.8679L262.186 45.1818H264.564V55H262.326V48.3075L258.408 55H256.024V45.1818H258.255V51.8679ZM266.262 55L266.25 53.0952H266.588C266.844 53.0952 267.059 53.0376 267.234 52.9226C267.409 52.8075 267.554 52.6158 267.669 52.3473C267.784 52.0746 267.873 51.7081 267.937 51.2479C268.001 50.7876 268.046 50.2145 268.071 49.5284L268.244 45.1818H275.403V55H273.166V47.0803H270.347L270.193 50.2443C270.155 51.0625 270.063 51.772 269.919 52.3729C269.778 52.9695 269.578 53.4616 269.318 53.8494C269.062 54.2372 268.74 54.527 268.353 54.7188C267.965 54.9062 267.507 55 266.978 55H266.262ZM282.016 55.1918C281.057 55.1918 280.226 54.9808 279.523 54.5589C278.82 54.1371 278.274 53.5469 277.886 52.7884C277.503 52.0298 277.311 51.1435 277.311 50.1293C277.311 49.1151 277.503 48.2266 277.886 47.4638C278.274 46.701 278.82 46.1087 279.523 45.6868C280.226 45.2649 281.057 45.054 282.016 45.054C282.974 45.054 283.805 45.2649 284.508 45.6868C285.212 46.1087 285.755 46.701 286.138 47.4638C286.526 48.2266 286.72 49.1151 286.72 50.1293C286.72 51.1435 286.526 52.0298 286.138 52.7884C285.755 53.5469 285.212 54.1371 284.508 54.5589C283.805 54.9808 282.974 55.1918 282.016 55.1918ZM282.028 53.3381C282.548 53.3381 282.983 53.1953 283.332 52.9098C283.682 52.62 283.942 52.2322 284.112 51.7464C284.287 51.2607 284.374 50.7195 284.374 50.1229C284.374 49.522 284.287 48.9787 284.112 48.4929C283.942 48.0028 283.682 47.6129 283.332 47.3232C282.983 47.0334 282.548 46.8885 282.028 46.8885C281.496 46.8885 281.052 47.0334 280.699 47.3232C280.349 47.6129 280.087 48.0028 279.913 48.4929C279.742 48.9787 279.657 49.522 279.657 50.1229C279.657 50.7195 279.742 51.2607 279.913 51.7464C280.087 52.2322 280.349 52.62 280.699 52.9098C281.052 53.1953 281.496 53.3381 282.028 53.3381ZM287.676 55L291.3 49.9311L287.708 45.1818H290.38L293.173 49.1385H293.723V45.1818H296.036V49.1385H296.573L299.367 45.1818H302.039L298.465 49.9311L302.071 55H299.341L296.548 51.0369H296.036V55H293.723V51.0369H293.211L290.405 55H287.676ZM307.779 55.1918C306.794 55.1918 305.944 54.9872 305.228 54.5781C304.517 54.1648 303.969 53.581 303.585 52.8267C303.202 52.0682 303.01 51.1754 303.01 50.1484C303.01 49.1385 303.202 48.2521 303.585 47.4893C303.973 46.7223 304.514 46.1257 305.209 45.6996C305.904 45.2692 306.72 45.054 307.657 45.054C308.262 45.054 308.833 45.152 309.37 45.348C309.911 45.5398 310.389 45.8381 310.802 46.2429C311.22 46.6477 311.548 47.1634 311.786 47.7898C312.025 48.4119 312.144 49.1534 312.144 50.0142V50.7237H304.097V49.1641H309.926C309.922 48.7209 309.826 48.3267 309.639 47.9815C309.451 47.6321 309.189 47.3572 308.853 47.157C308.52 46.9567 308.132 46.8565 307.689 46.8565C307.216 46.8565 306.801 46.9716 306.443 47.2017C306.085 47.4276 305.806 47.7259 305.605 48.0966C305.409 48.4631 305.309 48.8658 305.305 49.3047V50.6662C305.305 51.2372 305.409 51.7273 305.618 52.1364C305.827 52.5412 306.119 52.8523 306.494 53.0696C306.869 53.2827 307.308 53.3892 307.811 53.3892C308.147 53.3892 308.452 53.3423 308.725 53.2486C308.997 53.1506 309.234 53.0078 309.434 52.8203C309.634 52.6328 309.786 52.4006 309.888 52.1236L312.049 52.3665C311.912 52.9375 311.652 53.4361 311.269 53.8622C310.889 54.2841 310.404 54.6122 309.811 54.8466C309.219 55.0767 308.541 55.1918 307.779 55.1918ZM320.846 49.1321V51.0305H315.617V49.1321H320.846ZM316.333 45.1818V55H314.102V45.1818H316.333ZM322.361 45.1818V55H320.136V45.1818H322.361ZM326.932 51.8679L330.864 45.1818H333.241V55H331.004V48.3075L327.086 55H324.702V45.1818H326.932V51.8679ZM339.964 55.1918C338.98 55.1918 338.13 54.9872 337.414 54.5781C336.702 54.1648 336.155 53.581 335.771 52.8267C335.388 52.0682 335.196 51.1754 335.196 50.1484C335.196 49.1385 335.388 48.2521 335.771 47.4893C336.159 46.7223 336.7 46.1257 337.395 45.6996C338.089 45.2692 338.905 45.054 339.843 45.054C340.448 45.054 341.019 45.152 341.556 45.348C342.097 45.5398 342.574 45.8381 342.988 46.2429C343.405 46.6477 343.733 47.1634 343.972 47.7898C344.211 48.4119 344.33 49.1534 344.33 50.0142V50.7237H336.282V49.1641H342.112C342.108 48.7209 342.012 48.3267 341.824 47.9815C341.637 47.6321 341.375 47.3572 341.038 47.157C340.706 46.9567 340.318 46.8565 339.875 46.8565C339.402 46.8565 338.986 46.9716 338.628 47.2017C338.27 47.4276 337.991 47.7259 337.791 48.0966C337.595 48.4631 337.495 48.8658 337.491 49.3047V50.6662C337.491 51.2372 337.595 51.7273 337.804 52.1364C338.013 52.5412 338.304 52.8523 338.679 53.0696C339.054 53.2827 339.493 53.3892 339.996 53.3892C340.333 53.3892 340.638 53.3423 340.91 53.2486C341.183 53.1506 341.419 53.0078 341.62 52.8203C341.82 52.6328 341.971 52.4006 342.074 52.1236L344.234 52.3665C344.098 52.9375 343.838 53.4361 343.454 53.8622C343.075 54.2841 342.589 54.6122 341.997 54.8466C341.405 55.0767 340.727 55.1918 339.964 55.1918Z" fill="black"/>
</svg>
